<svg width="68" height="68" viewBox="0 0 68 68" fill="none" xmlns="http://www.w3.org/2000/svg">
<rect width="68" height="68" fill="white"/>
<path d="M15.3178 49H11.2378L21.7978 20.08H26.1578L36.7578 49H32.6378L30.0378 41.8H17.8778L15.3178 49ZM23.4778 26.32L19.0778 38.4H28.8778L24.4378 26.32C24.2378 25.76 24.0378 25.08 23.9578 24.64C23.8778 25.04 23.6778 25.72 23.4778 26.32Z" fill="black"/>
<path fill-rule="evenodd" clip-rule="evenodd" d="M47.23 48C42.287 47.641 35.047 41.732 35.047 34C35.047 26.269 42.132 20.434 47.23 20C48.764 19.87 47.953 19.875 49.372 20C46.035 22.104 42.216 27.962 42.216 34C42.216 40.038 44.994 45.619 49.372 48C48.024 48.125 48.698 48.106 47.23 48ZM44.256 34C44.256 27.1 48.735 21.236 55 18.991C53.243 18.361 51.353 18 49.372 18C40.33 18 33 25.164 33 34C33 42.837 40.33 50 49.372 50C51.353 50 53.243 49.639 55 49.009C48.735 46.764 44.256 40.901 44.256 34Z" fill="black"/>
</svg>
